<svg focusable="false" style="position: absolute; width: 0; height: 0; overflow: hidden;" version="1.1" xmlns="http://www.w3.org/2000/svg">
    <defs>
        <symbol id="icon-x" viewBox="0 0 32 32">
            <title>x</title>
            <path d="M16 32c-8.837 0-16-7.163-16-16s7.163-16 16-16c8.837 0 16 7.163 16 16s-7.163 16-16 16zM16 30c7.732 0 14-6.268 14-14s-6.268-14-14-14c-7.732 0-14 6.268-14 14s6.268 14 14 14zM25.338 21h-2.42l-2.324-3.78-2.324 3.78h-2.27l3.315-5.154-3.104-4.84h2.338l2.153 3.596 2.112-3.596h2.283l-3.138 4.956 3.377 5.038zM14.157 13.241c0 0.624-0.189 1.155-0.567 1.593s-0.909 0.738-1.593 0.902v0.041c0.807 0.1 1.417 0.345 1.832 0.735s0.622 0.915 0.622 1.576c0 0.962-0.349 1.71-1.046 2.246s-1.693 0.803-2.987 0.803c-1.085 0-2.046-0.18-2.885-0.54v-1.798c0.387 0.196 0.813 0.355 1.278 0.479s0.925 0.185 1.381 0.185c0.697 0 1.212-0.119 1.545-0.355s0.499-0.617 0.499-1.142c0-0.469-0.191-0.802-0.574-0.998s-0.994-0.294-1.832-0.294h-0.759v-1.62h0.772c0.775 0 1.341-0.101 1.699-0.304s0.537-0.55 0.537-1.042c0-0.757-0.474-1.135-1.422-1.135-0.328 0-0.662 0.055-1.001 0.164s-0.717 0.299-1.131 0.567l-0.978-1.456c0.911-0.656 1.998-0.984 3.261-0.984 1.034 0 1.851 0.21 2.451 0.629s0.899 1.003 0.899 1.75z"></path>
        </symbol>
        <symbol id="icon-camera" viewBox="0 0 32 32">
            <title>camera</title>
            <path d="M23.359 6.667h4.914c2.063 0 3.727 1.695 3.727 3.778v15.278c0 2.082-1.665 3.778-3.727 3.778h-24.545c-2.063 0-3.727-1.695-3.727-3.778v-15.278c0-2.082 1.665-3.778 3.727-3.778h4.914l2.431-3.714c0.185-0.282 0.499-0.452 0.837-0.452h8.182c0.337 0 0.652 0.17 0.837 0.452l2.431 3.714zM12.45 4.5l-2.431 3.714c-0.185 0.282-0.499 0.452-0.837 0.452h-5.455c-0.95 0-1.727 0.792-1.727 1.778v15.278c0 0.986 0.777 1.778 1.727 1.778h24.545c0.95 0 1.727-0.792 1.727-1.778v-15.278c0-0.986-0.777-1.778-1.727-1.778h-5.455c-0.337 0-0.652-0.17-0.837-0.452l-2.431-3.714h-7.101zM16 23.5c-3.59 0-6.5-2.91-6.5-6.5s2.91-6.5 6.5-6.5c3.59 0 6.5 2.91 6.5 6.5s-2.91 6.5-6.5 6.5zM16 21.5c2.485 0 4.5-2.015 4.5-4.5s-2.015-4.5-4.5-4.5c-2.485 0-4.5 2.015-4.5 4.5s2.015 4.5 4.5 4.5z"></path>
        </symbol>
        <symbol id="icon-chat" viewBox="0 0 32 32">
            <title>chat</title>
            <path d="M2.581 29.419l7.603-2.534c0.253-0.084 0.529-0.064 0.767 0.056 1.823 0.921 3.838 1.398 5.882 1.393 4.986-0.002 9.543-2.82 11.774-7.284 0.921-1.823 1.398-3.838 1.393-5.88l0.002-0.781c-0.369-6.684-5.706-12.021-12.335-12.388h-0.836c-2.042-0.005-4.057 0.472-5.884 1.394-4.46 2.229-7.278 6.786-7.28 11.775-0.005 2.042 0.472 4.057 1.393 5.88 0.12 0.238 0.14 0.514 0.056 0.767l-2.534 7.603zM30.394 21.947c-2.568 5.138-7.817 8.384-13.559 8.386-2.216 0.006-4.404-0.481-6.407-1.422l-9.113 3.038c-0.782 0.261-1.526-0.483-1.265-1.265l3.038-9.113c-0.942-2.003-1.428-4.191-1.422-6.405 0.002-5.744 3.249-10.993 8.382-13.559 2.104-1.063 4.429-1.614 6.784-1.607l0.888 0.002c7.702 0.425 13.852 6.575 14.278 14.332v0.832c0.006 2.357-0.545 4.682-1.605 6.782z"></path>
        </symbol>
        <symbol id="icon-credit-card" viewBox="0 0 32 32">
            <title>credit-card</title>
            <path d="M2 12v11c0 0.552 0.448 1 1 1h12v2h-12c-1.657 0-3-1.343-3-3v-18c0-1.657 1.343-3 3-3h26c1.657 0 3 1.343 3 3v13h-2v-6h-28zM2 10h28v-5c0-0.552-0.448-1-1-1h-26c-0.552 0-1 0.448-1 1v5zM20 20v-1.667c0-2.404 2.025-4.333 4.5-4.333s4.5 1.929 4.5 4.333v1.667h1c1.105 0 2 0.895 2 2v6c0 1.105-0.895 2-2 2h-11c-1.105 0-2-0.895-2-2v-6c0-1.105 0.895-2 2-2h1zM22 20h5v-1.667c0-1.277-1.109-2.333-2.5-2.333s-2.5 1.056-2.5 2.333v1.667zM19 22v6h11v-6h-11zM23.807 25.015c-0.13-0.156-0.201-0.353-0.2-0.556 0.005-0.422 0.311-0.78 0.726-0.848 0.472-0.077 0.917 0.244 0.994 0.717 0.038 0.246-0.031 0.496-0.19 0.687l0.285 0.801c0.068 0.195-0.032 0.409-0.224 0.483-0.468 0.184-0.988 0.184-1.456 0-0.191-0.075-0.289-0.288-0.221-0.483l0.285-0.801z"></path>
        </symbol>
        <symbol id="icon-drill" viewBox="0 0 32 32">
            <title>drill</title>
            <path d="M0.698 12.604c0.399-2.299 1.296-4.999 4.685-7.198 3.090-2.099 13.558-2.299 15.352-1.4 0.598 0.3 0.997 0.8 1.196 1.3 0.598 0.2 1.695 0.5 2.492 1.3s1.296 1.8 1.495 2.999h6.081v1.8h-6.081c-0.1 1.1-0.498 2.099-1.196 2.799-0.797 0.9-1.994 1.2-2.791 1.2-0.1 0-0.199 0.2-0.399 0.3-0.299 0.3-0.797 0.7-1.794 0.7h-5.981c0 0.8-0.199 2.099-1.196 3.399-1.097 1.4-2.492 1.899-3.389 1.999v4.999c0 0.1 0 0.6-0.399 1.1s-0.997 0.6-1.894 0.6h-5.084c-0.299 0-0.897-0.1-1.296-0.5-0.299-0.2-0.498-0.6-0.498-1.2v-7.198c0.1-1.1 0.199-4.299 0.698-6.998zM22.231 13.504c0.399-0.1 0.997-0.3 1.296-0.6 0.498-0.6 0.797-1.5 0.797-2.699 0-0.5-0.1-1.8-0.997-2.699-0.299-0.3-0.698-0.5-0.997-0.6 0 0-0.1 6.598-0.1 6.598zM11.464 18.803c0.698-0.9 0.797-1.799 0.797-2.399h-2.791c-0.1 0.1-0.199 0.1-0.199 0.3v3.499c0.698-0.2 1.595-0.5 2.193-1.4zM2.093 26.9h4.984c0.498 0 0.698-0.1 0.698-0.1v-10.097c0-1.2 0.897-1.7 1.396-1.899l10.667-0.1c0.598 0 0.797-0.3 0.797-0.7v-7.698c-0.1-0.1-0.199-0.6-0.698-0.9-1.196-0.6-10.966-0.6-13.757 1.2-2.891 1.899-3.589 4.099-3.988 6.198-0.399 2.699-0.598 5.698-0.598 6.698v7.398c0.199 0 0.399 0 0.498 0zM18.442 9.505h-9.67v1.8h9.67v-1.8z"></path>
        </symbol>
        <symbol id="icon-edit" viewBox="0 0 32 32">
            <title>edit</title>
            <path d="M26.46 12.46l-6.919-6.919-15.336 15.336 6.919 6.919 15.336-15.336zM9.71 29.21l-6.919-6.919-0.79 0.79v6.919h6.919l0.79-0.79zM23.374 0.293l8.333 8.333c0.391 0.391 0.391 1.024 0 1.414l-21.667 21.667c-0.188 0.188-0.442 0.293-0.707 0.293h-8.333c-0.552 0-1-0.448-1-1v-8.333c0-0.265 0.105-0.52 0.293-0.707l21.667-21.667c0.391-0.391 1.024-0.391 1.414 0z"></path>
        </symbol>
        <symbol id="icon-document" viewBox="0 0 26 32">
            <title>document</title>
            <path d="M15.6 3.514v6.886h6.886l-6.886-6.886zM24 12.4h-9.4c-0.552 0-1-0.448-1-1v-9.4h-9.6c-1.105 0-2 0.895-2 2v24c0 1.105 0.895 2 2 2h18c1.105 0 2-0.895 2-2v-15.6zM14.5 0c0.265 0 0.52 0.105 0.707 0.293l10.5 10.5c0.188 0.188 0.293 0.442 0.293 0.707v16.5c0 2.209-1.791 4-4 4h-18c-2.209 0-4-1.791-4-4v-24c0-2.209 1.791-4 4-4h10.5z"></path>
        </symbol>
        <symbol id="icon-locker" viewBox="0 0 29 32">
            <title>locker</title>
            <path d="M6 14v-5.778c0-4.55 3.814-8.222 8.5-8.222s8.5 3.673 8.5 8.222v5.778h3c1.657 0 3 1.343 3 3v12c0 1.657-1.343 3-3 3h-23c-1.657 0-3-1.343-3-3v-12c0-1.657 1.343-3 3-3h3zM8 14h13v-5.778c0-3.428-2.902-6.222-6.5-6.222s-6.5 2.794-6.5 6.222v5.778zM3 16c-0.552 0-1 0.448-1 1v12c0 0.552 0.448 1 1 1h23c0.552 0 1-0.448 1-1v-12c0-0.552-0.448-1-1-1h-23zM13.132 22.912c-0.268-0.32-0.413-0.726-0.411-1.144 0.010-0.868 0.64-1.604 1.494-1.744 0.971-0.159 1.887 0.501 2.046 1.476 0.078 0.505-0.064 1.020-0.391 1.413l0.587 1.648c0.14 0.402-0.065 0.842-0.462 0.993-0.963 0.379-2.033 0.379-2.996 0-0.394-0.154-0.595-0.593-0.454-0.993l0.587-1.648z"></path>
        </symbol>
        <symbol id="icon-mail" viewBox="0 0 32 32">
            <title>mail</title>
            <path d="M32 6.982c0 0.011 0 0.021 0 0.032v17.986c0 2.202-1.798 4-4 4h-24c-2.202 0-4-1.798-4-4v-17.986c-0-0.011-0-0.021 0-0.032 0.010-2.194 1.804-3.982 4-3.982h24c2.196 0 3.99 1.788 4 3.982zM29.938 6.506c-0.222-0.862-1.010-1.506-1.938-1.506h-24c-0.928 0-1.716 0.644-1.938 1.506l13.938 9.292 13.938-9.292zM30 8.869l-13.445 8.964c-0.336 0.224-0.774 0.224-1.109 0l-13.445-8.964v16.131c0 1.098 0.902 2 2 2h24c1.098 0 2-0.902 2-2v-16.131z"></path>
        </symbol>
        <symbol id="icon-map-pin" viewBox="0 0 27 32">
            <title>map-pin</title>
            <path d="M20.47 26.41c-1.402 1.453-2.901 2.778-4.401 3.95-0.525 0.411-1.014 0.774-1.454 1.085-0.267 0.189-0.46 0.321-0.568 0.391-0.333 0.218-0.763 0.218-1.095 0-0.108-0.071-0.301-0.202-0.568-0.391-0.44-0.312-0.928-0.675-1.454-1.085-1.499-1.172-2.998-2.497-4.401-3.95-4.069-4.217-6.53-8.648-6.53-13.138 0-7.334 6.048-13.273 13.5-13.273s13.5 5.938 13.5 13.273c0 4.49-2.461 8.921-6.53 13.138zM14.837 28.785c1.43-1.118 2.861-2.382 4.193-3.763 3.744-3.88 5.97-7.887 5.97-11.749 0-6.222-5.145-11.273-11.5-11.273s-11.5 5.051-11.5 11.273c0 3.862 2.226 7.869 5.97 11.749 1.332 1.381 2.763 2.645 4.193 3.763 0.483 0.378 0.933 0.712 1.337 1 0.404-0.288 0.854-0.622 1.337-1zM13 18c-2.761 0-5-2.239-5-5s2.239-5 5-5c2.761 0 5 2.239 5 5s-2.239 5-5 5zM13 16c1.657 0 3-1.343 3-3s-1.343-3-3-3c-1.657 0-3 1.343-3 3s1.343 3 3 3z"></path>
        </symbol>
        <symbol id="icon-phone" viewBox="0 0 32 32">
            <title>phone</title>
            <path d="M29.499 23.461c0.025-1.053-0.692-1.927-1.643-2.065-1.477-0.201-2.927-0.574-4.324-1.112-0.691-0.268-1.47-0.097-1.997 0.441l-1.852 1.912c-0.321 0.331-0.827 0.4-1.225 0.167-3.806-2.235-6.956-5.487-9.118-9.412-0.212-0.385-0.148-0.863 0.158-1.178l1.848-1.908c0.536-0.56 0.709-1.399 0.438-2.145-0.519-1.435-0.878-2.925-1.071-4.434-0.137-1.003-0.961-1.735-1.925-1.725h-4.373c-0.531 0.001-1.040 0.232-1.403 0.643-0.37 0.418-0.553 0.982-0.505 1.536 0.463 4.501 1.946 8.826 4.333 12.63 2.162 3.513 5.046 6.49 8.453 8.726 3.654 2.446 7.811 3.973 12.12 4.457 0.53 0.049 1.057-0.135 1.453-0.51 0.404-0.382 0.635-0.928 0.632-1.505v-4.516zM31.499 27.973c0.004 1.122-0.451 2.197-1.257 2.961-0.813 0.77-1.909 1.153-3.033 1.048-4.646-0.521-9.109-2.16-13.021-4.779-3.646-2.392-6.736-5.583-9.047-9.337-2.546-4.057-4.13-8.676-4.626-13.496-0.098-1.114 0.263-2.22 0.998-3.050 0.741-0.838 1.793-1.317 2.9-1.319l4.364 0c1.973-0.020 3.645 1.464 3.918 3.463 0.175 1.373 0.501 2.72 0.968 4.015 0.53 1.457 0.191 3.098-0.877 4.214l-1.329 1.372c1.836 3.098 4.354 5.704 7.346 7.606l1.299-1.341c1.088-1.111 2.713-1.469 4.151-0.911 1.251 0.482 2.55 0.816 3.882 0.997 1.968 0.287 3.406 2.034 3.364 4.057v4.501z"></path>
        </symbol>
        <symbol id="icon-help-circle" viewBox="0 0 32 32">
            <title>help-circle</title>
            <path d="M16.87 17.688v2.312c0 0.552-0.448 1-1 1s-1-0.448-1-1v-2.946c-0.001-0.012-0.001-0.023-0.001-0.035 0.003-0.446 0.272-0.835 0.692-0.971 0.116-0.038 0.341-0.121 0.635-0.248 0.495-0.214 0.989-0.47 1.445-0.764 1.192-0.771 1.859-1.635 1.859-2.534 0.003-1.698-1.265-3.159-3.013-3.45-1.754-0.292-3.464 0.683-4.047 2.294-0.188 0.519-0.762 0.788-1.281 0.6s-0.788-0.762-0.6-1.281c0.915-2.526 3.559-4.035 6.256-3.585 2.704 0.45 4.688 2.739 4.684 5.425 0 1.725-1.070 3.11-2.772 4.212-0.558 0.361-1.149 0.667-1.739 0.922-0.041 0.017-0.080 0.034-0.119 0.051zM16 32c-8.837 0-16-7.163-16-16s7.163-16 16-16c8.837 0 16 7.163 16 16s-7.163 16-16 16zM16 30c7.732 0 14-6.268 14-14s-6.268-14-14-14c-7.732 0-14 6.268-14 14s6.268 14 14 14zM15.87 22c0.552 0 1 0.448 1 1s-0.448 1-1 1c-0.552 0-1-0.448-1-1s0.448-1 1-1z"></path>
        </symbol>
        <symbol id="icon-award" viewBox="0 0 22 32">
            <title>award</title>
            <path d="M6.562 20.019l-1.288 9.115 5.235-2.952c0.305-0.172 0.678-0.172 0.982 0l5.235 2.952-1.287-9.116c-1.348 0.63-2.853 0.982-4.44 0.982s-3.090-0.352-4.438-0.981zM4.7 18.901c-2.55-1.916-4.2-4.966-4.2-8.401 0-5.799 4.701-10.5 10.5-10.5s10.5 4.701 10.5 10.5c0 3.434-1.649 6.484-4.198 8.399l1.688 11.961c0.116 0.821-0.759 1.418-1.481 1.011l-6.509-3.67-6.509 3.67c-0.722 0.407-1.597-0.19-1.481-1.011l1.69-11.959zM11 19c4.694 0 8.5-3.806 8.5-8.5s-3.806-8.5-8.5-8.5c-4.694 0-8.5 3.806-8.5 8.5s3.806 8.5 8.5 8.5z"></path>
        </symbol>
        <symbol id="icon-trash" viewBox="0 0 30 32">
            <title>trash</title>
            <path d="M22 6h6.5c0.552 0 1 0.448 1 1s-0.448 1-1 1h-2v20c0 2.209-1.791 4-4 4h-15c-2.209 0-4-1.791-4-4v-20h-2c-0.552 0-1-0.448-1-1s0.448-1 1-1h6.5v-2c0-2.209 1.791-4 4-4h6c2.209 0 4 1.791 4 4v2zM20 6v-2c0-1.105-0.895-2-2-2h-6c-1.105 0-2 0.895-2 2v2h10zM24.5 8h-19v20c0 1.105 0.895 2 2 2h15c1.105 0 2-0.895 2-2v-20zM11 14c0-0.552 0.448-1 1-1s1 0.448 1 1v9c0 0.552-0.448 1-1 1s-1-0.448-1-1v-9zM17 14c0-0.552 0.448-1 1-1s1 0.448 1 1v9c0 0.552-0.448 1-1 1s-1-0.448-1-1v-9z"></path>
        </symbol>
        <symbol id="icon-heart-empty" viewBox="0 0 32 32">
            <title>heart-empty</title>
            <path d="M16 27.518l11.925-11.925c1.329-1.328 2.075-3.13 2.075-5.008s-0.747-3.68-2.076-5.009c-1.328-1.329-3.13-2.075-5.009-2.075s-3.681 0.747-5.009 2.076l-1.907 1.907-1.907-1.907c-2.766-2.766-7.251-2.766-10.018 0s-2.766 7.251 0 10.018l11.925 11.925zM16 4.654l0.493-0.493c1.706-1.705 4.015-2.662 6.423-2.662 2.409 0 4.72 0.957 6.423 2.661s2.661 4.014 2.661 6.423c0 2.409-0.957 4.72-2.661 6.423l-12.351 12.351c-0.546 0.546-1.43 0.546-1.976 0l-12.351-12.351c-3.547-3.547-3.547-9.299 0-12.846s9.299-3.547 12.846 0l0.493 0.493z"></path>
        </symbol>
        <symbol id="icon-heart-full" viewBox="0 0 32 32">
            <title>heart-full</title>
            <path d="M16 4.654l0.493-0.493c1.706-1.705 4.015-2.662 6.423-2.662 2.409 0 4.72 0.957 6.423 2.661s2.661 4.014 2.661 6.423c0 2.409-0.957 4.72-2.661 6.423l-12.351 12.351c-0.546 0.546-1.43 0.546-1.976 0l-12.351-12.351c-3.547-3.547-3.547-9.299 0-12.846s9.299-3.547 12.846 0l0.493 0.493z"></path>
        </symbol>
        <symbol id="icon-star-empty" viewBox="0 0 32 32">
            <title>star-empty</title>
            <path d="M2.628 12.908l6.686 6.512-1.578 9.199 8.264-4.346 8.264 4.346-1.578-9.199 6.686-6.512-9.24-1.351-4.132-8.37-4.132 8.37-9.24 1.351zM10.54 9.73l4.156-8.42c0.534-1.081 2.075-1.081 2.608 0l4.156 8.42 9.294 1.358c1.192 0.174 1.668 1.64 0.804 2.481l-6.724 6.549 1.587 9.252c0.204 1.188-1.043 2.094-2.11 1.533l-8.311-4.371-8.311 4.371c-1.067 0.561-2.314-0.345-2.11-1.533l1.587-9.252-6.724-6.549c-0.863-0.841-0.388-2.307 0.804-2.481l9.294-1.358z"></path>
        </symbol>
        <symbol id="icon-star-full" viewBox="0 0 32 32">
            <title>star-full</title>
            <path d="M10.54 9.73l4.156-8.42c0.534-1.081 2.075-1.081 2.608 0l4.156 8.42 9.294 1.358c1.192 0.174 1.668 1.64 0.804 2.481l-6.724 6.549 1.587 9.252c0.204 1.188-1.043 2.094-2.11 1.533l-8.311-4.371-8.311 4.371c-1.067 0.561-2.314-0.345-2.11-1.533l1.587-9.252-6.724-6.549c-0.863-0.841-0.388-2.307 0.804-2.481l9.294-1.358z"></path>
        </symbol>
        <symbol id="icon-h" viewBox="0 0 32 32">
            <title>h</title>
            <path d="M16 32c-8.823 0-16-7.177-16-16s7.177-16 16-16c8.823 0 16 7.177 16 16s-7.177 16-16 16zM16 2c-7.72 0-14 6.28-14 14s6.28 14 14 14c7.72 0 14-6.28 14-14s-6.28-14-14-14zM15.547 21h-6.986v-1.47l2.509-2.536c0.743-0.761 1.228-1.289 1.456-1.583s0.392-0.566 0.492-0.817c0.1-0.251 0.15-0.51 0.15-0.779 0-0.401-0.111-0.7-0.332-0.896s-0.516-0.294-0.885-0.294c-0.387 0-0.763 0.089-1.128 0.267s-0.745 0.431-1.142 0.759l-1.148-1.36c0.492-0.419 0.9-0.716 1.224-0.889s0.677-0.306 1.060-0.4c0.383-0.093 0.811-0.14 1.285-0.14 0.624 0 1.176 0.114 1.654 0.342s0.85 0.547 1.114 0.957c0.264 0.41 0.396 0.88 0.396 1.408 0 0.46-0.081 0.892-0.243 1.295s-0.412 0.817-0.752 1.241c-0.34 0.424-0.938 1.028-1.794 1.812l-1.285 1.21v0.096h4.354v1.777zM23.764 18.929h-1.203v2.071h-2.064v-2.071h-4.266v-1.47l4.382-6.453h1.948v6.282h1.203v1.641zM20.496 17.288v-1.695c0-0.283 0.011-0.693 0.034-1.23s0.041-0.85 0.055-0.937h-0.055c-0.169 0.374-0.371 0.738-0.608 1.094l-1.832 2.769h2.406z"></path>
        </symbol>
        <symbol id="icon-free-delivery" viewBox="0 0 32 32">
            <title>free-delivery</title>
            <path d="M30.476 15.69v-0.003c0-0.288-0.134-0.773-0.282-1.016l-2.13-3.552c-0.646-0.002-3.683-0.009-3.683-0.015 0 0-0.011 4.587-0.003 4.587h6.098zM30.476 23.313v-6.098h-6.098c-0.849 0-1.521-0.67-1.521-1.509v-4.602c0-0.841 0.68-1.509 1.516-1.509h2.775l-0.745-1.243c-0.079-0.131-0.343-0.28-0.495-0.28h-6.098v15.238h1.602c0.352-1.739 1.89-3.048 3.732-3.048 1.844 0 3.381 1.309 3.733 3.051 0.674 0.002 1.6 0.003 1.6 0zM25.143 26.357c1.262 0 2.286-1.024 2.286-2.286 0-1.263-1.024-2.286-2.286-2.286s-2.286 1.022-2.286 2.286c0 1.262 1.024 2.286 2.286 2.286zM6.857 26.357c1.263 0 2.286-1.024 2.286-2.286 0-1.263-1.022-2.286-2.286-2.286s-2.286 1.022-2.286 2.286c0 1.262 1.022 2.286 2.286 2.286zM31.502 13.886c0.288 0.482 0.498 1.236 0.498 1.801v7.625c0 0.847-0.672 1.521-1.531 1.521h-1.594c-0.352 1.739-1.89 3.048-3.732 3.048s-3.38-1.309-3.732-3.048h-10.821c-0.354 1.739-1.891 3.048-3.733 3.048s-3.38-1.309-3.733-3.048h-1.592c-0.843 0-1.531-0.687-1.531-1.524v-4h1.528c0 3.089 0.002 4 0.003 4h1.592c0.354-1.739 1.891-3.048 3.733-3.048s3.38 1.309 3.733 3.048h7.695v-18.286h-16.762c0 0 0 1.856 0.002 4.381h10.188c0.317 0 0.571 0.256 0.571 0.571s-0.254 0.571-0.571 0.571h-11.714v-5.524c0-0.84 0.689-1.524 1.524-1.524h16.762c0.84 0 1.524 0.689 1.524 1.524v1.524h6.098c0.687 0 1.448 0.43 1.803 1.019l3.791 6.319zM8.667 18.167h-8.666v-1.905h1.525c0 0.254 0 0.509 0.002 0.762h7.139c0.315 0 0.571 0.256 0.571 0.571s-0.256 0.571-0.571 0.571zM0 14.357v-1.905h1.525v0.762h8.664c0.317 0 0.571 0.256 0.571 0.571s-0.254 0.571-0.571 0.571h-10.19z"></path>
        </symbol>
        <symbol id="icon-eye" viewBox="0 0 32 32">
            <title>eye</title>
            <path d="M0.104 15.556c0.050-0.1 0.142-0.275 0.276-0.516 0.219-0.393 0.479-0.829 0.78-1.298 0.856-1.337 1.866-2.673 3.029-3.923 3.368-3.623 7.316-5.819 11.812-5.819s8.444 2.196 11.812 5.819c1.162 1.25 2.173 2.586 3.029 3.923 0.3 0.469 0.56 0.905 0.78 1.298 0.134 0.24 0.226 0.416 0.276 0.516 0.139 0.28 0.139 0.609 0 0.888-0.050 0.1-0.142 0.275-0.276 0.516-0.219 0.393-0.479 0.829-0.78 1.298-0.856 1.337-1.866 2.673-3.029 3.923-3.368 3.623-7.316 5.819-11.812 5.819s-8.444-2.196-11.812-5.819c-1.162-1.25-2.173-2.586-3.029-3.923-0.3-0.469-0.56-0.905-0.78-1.298-0.134-0.24-0.226-0.416-0.276-0.516-0.139-0.28-0.139-0.609 0-0.889zM2.844 17.179c0.795 1.242 1.734 2.484 2.809 3.64 3.024 3.252 6.491 5.181 10.347 5.181s7.323-1.929 10.347-5.181c1.075-1.156 2.014-2.398 2.809-3.64 0.274-0.428 0.511-0.824 0.709-1.179-0.198-0.355-0.435-0.752-0.709-1.179-0.795-1.242-1.734-2.484-2.809-3.64-3.024-3.252-6.491-5.181-10.347-5.181s-7.323 1.929-10.347 5.181c-1.075 1.156-2.014 2.398-2.809 3.64-0.274 0.428-0.511 0.824-0.709 1.179 0.198 0.355 0.435 0.752 0.709 1.179zM16 21c-2.761 0-5-2.239-5-5s2.239-5 5-5c2.761 0 5 2.239 5 5s-2.239 5-5 5zM16 19c1.657 0 3-1.343 3-3s-1.343-3-3-3c-1.657 0-3 1.343-3 3s1.343 3 3 3z"></path>
        </symbol>
    </defs>
</svg>
